<svg width="47" height="36" viewBox="0 0 47 36" fill="none" xmlns="http://www.w3.org/2000/svg">
<path d="M0.616313 8.592V0.959999H13.9123V36H5.36831V8.592H0.616313ZM19.5272 18C19.5272 12.496 20.5832 8.16 22.6952 4.992C24.8392 1.824 28.2792 0.239997 33.0152 0.239997C37.7512 0.239997 41.1752 1.824 43.2872 4.992C45.4312 8.16 46.5032 12.496 46.5032 18C46.5032 23.568 45.4312 27.936 43.2872 31.104C41.1752 34.272 37.7512 35.856 33.0152 35.856C28.2792 35.856 24.8392 34.272 22.6952 31.104C20.5832 27.936 19.5272 23.568 19.5272 18ZM38.4392 18C38.4392 14.768 38.0872 12.288 37.3832 10.56C36.6792 8.8 35.2232 7.92 33.0152 7.92C30.8072 7.92 29.3512 8.8 28.6472 10.56C27.9432 12.288 27.5912 14.768 27.5912 18C27.5912 20.176 27.7192 21.984 27.9752 23.424C28.2312 24.832 28.7432 25.984 29.5112 26.88C30.3112 27.744 31.4792 28.176 33.0152 28.176C34.5512 28.176 35.7032 27.744 36.4712 26.88C37.2712 25.984 37.7992 24.832 38.0552 23.424C38.3112 21.984 38.4392 20.176 38.4392 18Z" fill="black"/>
</svg>
