<svg width="25" height="36" viewBox="0 0 25 36" fill="none" xmlns="http://www.w3.org/2000/svg">
<path d="M0.161063 29.424C1.24906 28.56 1.74506 28.16 1.64906 28.224C4.78506 25.632 7.24906 23.504 9.04106 21.84C10.8651 20.176 12.4011 18.432 13.6491 16.608C14.8971 14.784 15.5211 13.008 15.5211 11.28C15.5211 9.968 15.2171 8.944 14.6091 8.208C14.0011 7.472 13.0891 7.104 11.8731 7.104C10.6571 7.104 9.69706 7.568 8.99306 8.496C8.32106 9.392 7.98506 10.672 7.98506 12.336H0.0650625C0.129063 9.616 0.705063 7.344 1.79306 5.52C2.91306 3.696 4.36906 2.352 6.16106 1.488C7.98506 0.623998 10.0011 0.191998 12.2091 0.191998C16.0171 0.191998 18.8811 1.168 20.8011 3.12C22.7531 5.072 23.7291 7.616 23.7291 10.752C23.7291 14.176 22.5611 17.36 20.2251 20.304C17.8891 23.216 14.9131 26.064 11.2971 28.848H24.2571V35.52H0.161063V29.424Z" fill="black"/>
</svg>
