<svg width="25" height="37" viewBox="0 0 25 37" fill="none" xmlns="http://www.w3.org/2000/svg">
<path d="M0.91675 10.848C1.04475 7.424 2.16475 4.784 4.27675 2.928C6.38875 1.072 9.25275 0.143998 12.8688 0.143998C15.2688 0.143998 17.3168 0.559999 19.0128 1.392C20.7408 2.224 22.0368 3.36 22.9008 4.8C23.7968 6.24 24.2448 7.856 24.2448 9.648C24.2448 11.76 23.7168 13.488 22.6608 14.832C21.6048 16.144 20.3728 17.04 18.9648 17.52V17.712C20.7888 18.32 22.2288 19.328 23.2848 20.736C24.3408 22.144 24.8688 23.952 24.8688 26.16C24.8688 28.144 24.4048 29.904 23.4768 31.44C22.5808 32.944 21.2528 34.128 19.4928 34.992C17.7648 35.856 15.7008 36.288 13.3008 36.288C9.46075 36.288 6.38875 35.344 4.08475 33.456C1.81275 31.568 0.61275 28.72 0.48475 24.912H8.45275C8.48475 26.32 8.88475 27.44 9.65275 28.272C10.4208 29.072 11.5408 29.472 13.0128 29.472C14.2608 29.472 15.2208 29.12 15.8928 28.416C16.5968 27.68 16.9488 26.72 16.9488 25.536C16.9488 24 16.4528 22.896 15.4608 22.224C14.5008 21.52 12.9488 21.168 10.8047 21.168H9.26875V14.496H10.8047C12.4368 14.496 13.7488 14.224 14.7408 13.68C15.7648 13.104 16.2768 12.096 16.2768 10.656C16.2768 9.504 15.9568 8.608 15.3168 7.968C14.6768 7.328 13.7968 7.008 12.6768 7.008C11.4608 7.008 10.5488 7.376 9.94075 8.112C9.36475 8.848 9.02875 9.76 8.93275 10.848H0.91675Z" fill="black"/>
</svg>
