<svg width="26" height="36" viewBox="0 0 26 36" fill="none" xmlns="http://www.w3.org/2000/svg">
<path d="M23.2226 8.112H8.24663V14.736C8.88663 14.032 9.78263 13.456 10.9346 13.008C12.0866 12.56 13.3346 12.336 14.6786 12.336C17.0786 12.336 19.0626 12.88 20.6306 13.968C22.2306 15.056 23.3986 16.464 24.1346 18.192C24.8706 19.92 25.2386 21.792 25.2386 23.808C25.2386 27.552 24.1826 30.528 22.0706 32.736C19.9586 34.912 16.9826 36 13.1426 36C10.5826 36 8.35863 35.568 6.47063 34.704C4.58263 33.808 3.12663 32.576 2.10263 31.008C1.07863 29.44 0.518625 27.632 0.422625 25.584H8.43863C8.63063 26.576 9.09462 27.408 9.83063 28.08C10.5666 28.72 11.5746 29.04 12.8546 29.04C14.3586 29.04 15.4786 28.56 16.2146 27.6C16.9506 26.64 17.3186 25.36 17.3186 23.76C17.3186 22.192 16.9346 20.992 16.1666 20.16C15.3986 19.328 14.2786 18.912 12.8066 18.912C11.7186 18.912 10.8226 19.184 10.1186 19.728C9.41463 20.24 8.95062 20.928 8.72662 21.792H0.806625V0.912H23.2226V8.112Z" fill="black"/>
</svg>
