<svg width="26" height="37" viewBox="0 0 26 37" fill="none" xmlns="http://www.w3.org/2000/svg">
<path d="M16.7068 10.416C16.4508 9.232 16.0028 8.352 15.3628 7.776C14.7228 7.168 13.8108 6.864 12.6268 6.864C10.8028 6.864 9.49075 7.664 8.69075 9.264C7.89075 10.832 7.47475 13.328 7.44275 16.752C8.14675 15.632 9.15475 14.752 10.4668 14.112C11.8108 13.472 13.2828 13.152 14.8828 13.152C18.0188 13.152 20.5308 14.144 22.4188 16.128C24.3388 18.112 25.2988 20.88 25.2988 24.432C25.2988 26.768 24.8188 28.816 23.8588 30.576C22.9308 32.336 21.5548 33.712 19.7308 34.704C17.9388 35.696 15.8108 36.192 13.3468 36.192C8.41875 36.192 4.99475 34.656 3.07475 31.584C1.15475 28.48 0.19475 24.032 0.19475 18.24C0.19475 12.16 1.20275 7.648 3.21875 4.704C5.26675 1.728 8.53075 0.239997 13.0108 0.239997C15.4108 0.239997 17.4268 0.719997 19.0588 1.68C20.7228 2.608 21.9708 3.84 22.8028 5.376C23.6668 6.912 24.1788 8.592 24.3387 10.416H16.7068ZM12.9148 19.632C11.5388 19.632 10.3868 20.048 9.45875 20.88C8.56275 21.68 8.11475 22.832 8.11475 24.336C8.11475 25.872 8.53075 27.072 9.36275 27.936C10.2268 28.8 11.4428 29.232 13.0108 29.232C14.4188 29.232 15.5228 28.816 16.3228 27.984C17.1548 27.12 17.5708 25.952 17.5708 24.48C17.5708 22.976 17.1708 21.792 16.3708 20.928C15.5708 20.064 14.4188 19.632 12.9148 19.632Z" fill="black"/>
</svg>
