<svg width="26" height="37" viewBox="0 0 26 37" fill="none" xmlns="http://www.w3.org/2000/svg">
<path d="M5.3575 17.184C2.3495 15.584 0.8455 13.072 0.8455 9.648C0.8455 7.92 1.2935 6.352 2.1895 4.944C3.0855 3.504 4.4455 2.368 6.2695 1.536C8.0935 0.671997 10.3335 0.239997 12.9895 0.239997C15.6455 0.239997 17.8695 0.671997 19.6615 1.536C21.4855 2.368 22.8455 3.504 23.7415 4.944C24.6375 6.352 25.0855 7.92 25.0855 9.648C25.0855 11.376 24.6695 12.88 23.8375 14.16C23.0375 15.44 21.9495 16.448 20.5735 17.184C22.3015 18.016 23.6295 19.168 24.5575 20.64C25.4855 22.08 25.9495 23.776 25.9495 25.728C25.9495 28 25.3735 29.968 24.2215 31.632C23.0695 33.264 21.5015 34.512 19.5175 35.376C17.5655 36.24 15.3895 36.672 12.9895 36.672C10.5895 36.672 8.3975 36.24 6.4135 35.376C4.4615 34.512 2.9095 33.264 1.7575 31.632C0.6055 29.968 0.0295001 28 0.0295001 25.728C0.0295001 23.744 0.4935 22.032 1.4215 20.592C2.3495 19.12 3.6615 17.984 5.3575 17.184ZM17.1175 10.896C17.1175 9.584 16.7335 8.576 15.9655 7.872C15.2295 7.136 14.2375 6.768 12.9895 6.768C11.7415 6.768 10.7335 7.136 9.9655 7.872C9.2295 8.608 8.8615 9.632 8.8615 10.944C8.8615 12.192 9.2455 13.184 10.0135 13.92C10.7815 14.624 11.7735 14.976 12.9895 14.976C14.2055 14.976 15.1975 14.608 15.9655 13.872C16.7335 13.136 17.1175 12.144 17.1175 10.896ZM12.9895 20.736C11.4855 20.736 10.2695 21.152 9.3415 21.984C8.4135 22.784 7.9495 23.904 7.9495 25.344C7.9495 26.688 8.3975 27.792 9.2935 28.656C10.2215 29.52 11.4535 29.952 12.9895 29.952C14.5255 29.952 15.7255 29.52 16.5895 28.656C17.4855 27.792 17.9335 26.688 17.9335 25.344C17.9335 23.936 17.4695 22.816 16.5415 21.984C15.6455 21.152 14.4615 20.736 12.9895 20.736Z" fill="black"/>
</svg>
