<svg width="26" height="37" viewBox="0 0 26 37" fill="none" xmlns="http://www.w3.org/2000/svg">
<path d="M9.22638 25.728C9.70638 28.256 11.1784 29.52 13.6424 29.52C15.3384 29.52 16.5384 28.768 17.2424 27.264C17.9464 25.76 18.2984 23.312 18.2984 19.92C17.5944 20.912 16.6344 21.68 15.4184 22.224C14.2024 22.768 12.8424 23.04 11.3384 23.04C9.29038 23.04 7.46638 22.624 5.86638 21.792C4.26638 20.928 3.00238 19.664 2.07438 18C1.17838 16.304 0.730375 14.256 0.730375 11.856C0.730375 9.488 1.21038 7.424 2.17038 5.664C3.16238 3.904 4.55438 2.544 6.34638 1.584C8.17038 0.623999 10.3144 0.143998 12.7784 0.143998C17.5144 0.143998 20.8264 1.616 22.7144 4.56C24.6024 7.504 25.5464 11.84 25.5464 17.568C25.5464 21.728 25.1624 25.168 24.3944 27.888C23.6584 30.576 22.3944 32.624 20.6024 34.032C18.8424 35.44 16.4264 36.144 13.3544 36.144C10.9224 36.144 8.84238 35.664 7.11438 34.704C5.41838 33.744 4.10638 32.48 3.17838 30.912C2.28238 29.344 1.77038 27.616 1.64238 25.728H9.22638ZM13.2104 16.56C14.5544 16.56 15.6264 16.16 16.4264 15.36C17.2264 14.528 17.6264 13.408 17.6264 12C17.6264 10.464 17.2104 9.28 16.3784 8.448C15.5464 7.616 14.4264 7.2 13.0184 7.2C11.6104 7.2 10.4904 7.632 9.65838 8.496C8.85838 9.328 8.45838 10.48 8.45838 11.952C8.45838 13.328 8.85838 14.448 9.65838 15.312C10.4904 16.144 11.6744 16.56 13.2104 16.56Z" fill="black"/>
</svg>
