<svg width="570" height="517" viewBox="0 0 570 517" fill="none" xmlns="http://www.w3.org/2000/svg">
<path d="M45.115 502.753L55.686 502.752L60.715 461.977H45.113L45.115 502.753Z" fill="#ECE3B2"/>
<path d="M42.4182 499.301L45.3938 499.301L57.0108 494.577L63.2372 499.3H63.238C66.7567 499.301 70.1312 500.698 72.6193 503.186C75.1074 505.674 76.5053 509.049 76.5055 512.568V512.999L42.4189 513L42.4182 499.301Z" fill="#2F2E41"/>
<path d="M94.228 502.753L104.799 502.752L109.828 461.977H94.226L94.228 502.753Z" fill="#ECE3B2"/>
<path d="M91.5311 499.301L94.5067 499.301L106.124 494.577L112.35 499.3H112.351C115.87 499.301 119.244 500.698 121.732 503.186C124.22 505.674 125.618 509.049 125.618 512.568V512.999L91.5317 513L91.5311 499.301Z" fill="#2F2E41"/>
<path d="M102.678 279.609L19.6194 281.775L21.0639 322.221C21.0639 322.221 19.6194 333.055 22.5084 335.944C25.3974 338.833 26.8419 338.833 25.3974 343.889C23.9529 348.945 31.5848 357.202 30.6578 358.129C29.7309 359.056 27.5641 364.112 27.5641 364.112L34.7866 405.28C34.7866 405.28 39.8423 476.783 41.2868 478.227C42.7313 479.672 44.1758 478.227 42.7313 481.838C41.2868 485.45 39.8423 484.005 41.2868 485.45C42.5664 486.829 43.7718 488.276 44.8981 489.783H62.36C62.36 489.783 63.6766 482.561 63.6766 481.838C63.6766 481.116 65.1211 476.783 65.1211 476.06C65.1211 475.338 63.8444 474.061 63.8444 474.061C63.4032 472.593 63.1051 471.086 62.9543 469.56C62.9543 468.116 58.6208 412.502 58.6208 412.502L67.2879 340.278L88.2331 411.058C88.2331 411.058 88.2331 473.171 89.6776 474.616C91.1221 476.06 91.122 475.338 90.3998 478.227C89.6775 481.116 86.7885 480.394 88.9553 482.561C91.122 484.727 91.8443 481.116 91.122 484.727L90.3998 488.339L112.067 488.649C112.067 488.649 114.956 482.561 113.512 480.394C112.067 478.227 112.154 478.819 113.916 475.273C115.679 471.727 116.401 471.005 115.678 470.282C114.956 469.56 114.956 465.719 114.956 465.719L111.345 396.613C111.345 396.613 110.623 323.666 110.623 321.499C110.568 320.384 110.774 319.272 111.223 318.25V315.309L108.456 304.887L102.678 279.609Z" fill="#2F2E41"/>
<path d="M196.675 122.084C196.276 123.194 195.638 124.202 194.807 125.039C193.976 125.875 192.972 126.519 191.865 126.925C190.758 127.332 189.575 127.49 188.401 127.39C187.226 127.29 186.087 126.934 185.065 126.346L149.011 156.551L147.052 141.787L182.316 114.792C183.417 113.14 185.086 111.95 187.006 111.446C188.926 110.943 190.964 111.161 192.734 112.06C194.504 112.959 195.883 114.476 196.609 116.324C197.335 118.171 197.359 120.221 196.675 122.084V122.084Z" fill="#ECE3B2"/>
<path d="M37.6965 134.551C50.062 134.551 60.0862 124.526 60.0862 112.161C60.0862 99.7953 50.062 89.7711 37.6965 89.7711C25.331 89.7711 15.3068 99.7953 15.3068 112.161C15.3068 124.526 25.331 134.551 37.6965 134.551Z" fill="#ECE3B2"/>
<path d="M55.8477 89.8783C53.7633 84.9101 44.8303 81.9603 30.6948 82.4045C16.5594 82.8488 14.0839 99.7055 14.0839 99.7055C6.29813 106.962 18.8682 129.62 21.0489 126.496C23.2297 123.372 26.8912 126.325 26.8912 126.325L23.4019 106.698C27.0867 108.116 31.0497 109.067 34.5156 107.416L28.7731 104.345C33.5324 104.937 38.2918 105.53 43.0512 106.122L37.1629 101.592C37.3056 101.545 37.4483 101.496 37.5911 101.448C39.9526 102.466 42.4815 103.04 45.0511 103.142C48.0531 103.119 51.2434 101.712 52.5014 98.9865C52.8358 98.238 53.017 97.4301 53.0341 96.6104C57.1734 97.9543 59.3468 102.803 59.3468 102.803C58.5609 98.4009 57.3901 94.0759 55.8477 89.8783V89.8783Z" fill="#2F2E41"/>
<path d="M55.6185 135.552C50.6185 135.552 47.3985 136.242 39.6185 137.552C25.2585 139.972 33.8585 153.616 33.8585 153.616C33.8585 153.616 34.5085 153.286 32.7485 153.616C30.9885 153.946 24.9885 159.137 24.9885 159.137L14.2585 168.667C-1.91152 181.357 1.70849 201.156 1.70849 201.156L25.2885 224.887L14.9585 272.496C14.9585 272.496 19.3485 279.567 17.0784 282.737C14.8084 285.907 37.0784 284.996 37.0784 284.996C52.4484 291.846 106.598 286.056 106.598 286.056C105.848 284.096 98.5984 268.906 98.5984 268.906C101.748 263.466 98.7484 255.607 98.7484 255.607C98.7484 255.607 95.6184 218.426 93.6184 213.286C91.6184 208.146 98.7385 180.296 103.418 180.596C108.098 180.896 138.328 165.477 138.328 165.477C138.328 165.477 137.568 164.266 147.548 160.186C153.281 157.934 158.536 154.619 163.038 150.417L167.138 142.227C165.168 142.987 158.518 130.447 158.518 130.447L155.618 131.552L153.938 131.066C153.938 131.066 140.828 134.796 138.148 137.516C135.468 140.236 134.568 139.476 132.148 140.086C129.728 140.696 129.428 142.396 128.668 142.206C127.908 142.016 126.558 144.316 125.498 144.016C124.438 143.716 122.168 144.927 120.658 145.227C119.148 145.527 108.418 150.066 108.418 150.066C101.778 146.706 83.7784 148.066 83.7784 148.066C83.7784 148.066 77.8884 144.596 76.2184 148.066C75.7691 149.052 75.0476 149.889 74.1389 150.479C73.2301 151.069 72.1718 151.387 71.0884 151.396L63.9084 148.326C63.4912 149.85 55.6595 133.973 55.6185 135.552Z" fill="#528357"/>
<path d="M21.3391 321.885C20.5549 321.005 19.9733 319.963 19.6353 318.833C19.2973 317.704 19.211 316.514 19.3827 315.347C19.5543 314.181 19.9796 313.066 20.6286 312.082C21.2776 311.097 22.1346 310.267 23.1391 309.65L12.9667 269.661L26.8744 274.991L34.6036 312.752C35.5288 314.508 35.7777 316.543 35.303 318.47C34.8283 320.398 33.663 322.084 32.028 323.21C30.393 324.336 28.4018 324.823 26.4318 324.579C24.4618 324.334 22.6497 323.376 21.3391 321.885V321.885Z" fill="#ECE3B2"/>
<path d="M2.61843 193.552L1.36224 209.52C1.36224 209.52 -0.199323 227.064 0.209557 230.308C0.618437 233.552 1.37988 253.363 1.37988 253.363L14.6184 279.552L29.6184 275.552L28.7208 263.266L29.6184 274.552L31.6184 264.552L26.6184 247.552L29.6184 241.552L28.1056 221.411L2.61843 193.552Z" fill="#528357"/>
<path d="M466.433 390.71H401.767C400.044 390.708 398.391 390.023 397.173 388.804C395.954 387.585 395.269 385.933 395.267 384.21V328.21C395.269 326.487 395.954 324.835 397.173 323.616C398.391 322.397 400.044 321.712 401.767 321.71H466.433C468.157 321.712 469.809 322.397 471.027 323.616C472.246 324.835 472.931 326.487 472.933 328.21V384.21C472.931 385.933 472.246 387.585 471.027 388.804C469.809 390.023 468.157 390.708 466.433 390.71V390.71Z" fill="#F2F2F2"/>
<path d="M466.433 319.71H401.767C400.044 319.708 398.391 319.023 397.173 317.804C395.954 316.585 395.269 314.933 395.267 313.21V257.21C395.269 255.487 395.954 253.835 397.173 252.616C398.391 251.397 400.044 250.712 401.767 250.71H466.433C468.157 250.712 469.809 251.397 471.027 252.616C472.246 253.835 472.931 255.487 472.933 257.21V313.21C472.931 314.933 472.246 316.585 471.027 317.804C469.809 319.023 468.157 319.708 466.433 319.71V319.71Z" fill="#F2F2F2"/>
<path d="M466.433 461.71H401.767C400.044 461.708 398.391 461.023 397.173 459.804C395.954 458.585 395.269 456.933 395.267 455.21V399.21C395.269 397.487 395.954 395.835 397.173 394.616C398.391 393.397 400.044 392.712 401.767 392.71H466.433C468.157 392.712 469.809 393.397 471.027 394.616C472.246 395.835 472.931 397.487 472.933 399.21V455.21C472.931 456.933 472.246 458.585 471.027 459.804C469.809 461.023 468.157 461.708 466.433 461.71Z" fill="#F2F2F2"/>
<path d="M386.767 461.71H322.1C320.377 461.708 318.724 461.023 317.506 459.804C316.287 458.585 315.602 456.933 315.6 455.21V399.21C315.602 397.487 316.287 395.835 317.506 394.616C318.724 393.397 320.377 392.712 322.1 392.71H386.767C388.49 392.712 390.142 393.397 391.361 394.616C392.579 395.835 393.265 397.487 393.267 399.21V455.21C393.265 456.933 392.579 458.585 391.361 459.804C390.142 461.023 388.49 461.708 386.767 461.71V461.71Z" fill="#F2F2F2"/>
<path d="M562.618 319.71H481.433C479.71 319.708 478.058 319.023 476.839 317.804C475.621 316.585 474.935 314.933 474.933 313.21V257.21C474.935 255.487 475.621 253.835 476.839 252.616C478.058 251.397 479.71 250.712 481.433 250.71H562.618C564.342 250.712 565.994 251.397 567.212 252.616C568.431 253.835 569.116 255.487 569.118 257.21V313.21C569.116 314.933 568.431 316.585 567.212 317.804C565.994 319.023 564.342 319.708 562.618 319.71V319.71Z" fill="#F2F2F2"/>
<path d="M233.433 248.21V248H236.433V248.21H313.1V248H316.1V248.21H392.767V248.646H395.767V248.21H472.433V248.646H475.433V248.21H568.618V36.6102C568.618 31.8025 567.672 27.0419 565.832 22.6001C563.992 18.1583 561.295 14.1224 557.896 10.7229C554.496 7.32329 550.46 4.62661 546.018 2.78677C541.577 0.946936 536.816 -1.52588e-05 532.008 -1.52588e-05H175.229C165.519 -1.26066e-05 156.207 3.85712 149.341 10.7229C142.476 17.5886 138.618 26.9006 138.618 36.6102V248.21H233.433Z" fill="#E6E6E6"/>
<path d="M562.618 321.71H481.433C477.849 321.71 474.933 327.639 474.933 334.926V455.21C474.935 456.604 475.385 457.961 476.216 459.081C477.047 460.2 478.215 461.024 479.549 461.429C480.111 461.793 480.764 461.99 481.433 462H562.618C563.288 461.99 563.941 461.793 564.503 461.429C565.837 461.024 567.005 460.2 567.836 459.081C568.667 457.961 569.116 456.604 569.118 455.21V334.926C569.118 327.639 566.202 321.71 562.618 321.71Z" fill="#F2F2F2"/>
<path d="M227.433 461.71H144.618C142.895 461.708 141.243 461.023 140.024 459.804C138.806 458.585 138.12 456.933 138.118 455.21V399.21C138.12 397.487 138.806 395.835 140.024 394.616C141.243 393.397 142.895 392.712 144.618 392.71H227.433C229.157 392.712 230.809 393.397 232.027 394.616C233.246 395.835 233.931 397.487 233.933 399.21V455.21C233.931 456.933 233.246 458.585 232.027 459.804C230.809 461.023 229.157 461.708 227.433 461.71Z" fill="#F2F2F2"/>
<path d="M227.433 390.71H144.618C142.895 390.708 141.243 390.023 140.024 388.804C138.806 387.585 138.12 385.933 138.118 384.21V328.21C138.12 326.487 138.806 324.835 140.024 323.616C141.243 322.397 142.895 321.712 144.618 321.71H227.433C229.157 321.712 230.809 322.397 232.027 323.616C233.246 324.835 233.931 326.487 233.933 328.21V384.21C233.931 385.933 233.246 387.585 232.027 388.804C230.809 390.023 229.157 390.708 227.433 390.71V390.71Z" fill="#F2F2F2"/>
<path d="M475.433 465.21V463.984H472.433V465.21H395.767V465.984H392.767V465.21H316.1V465.984H313.1V465.21H236.433V465.984H233.433V465.21H138.618V476.39C138.618 486.099 142.476 495.411 149.341 502.277C156.207 509.143 165.519 513 175.229 513H532.008C541.718 513 551.03 509.143 557.896 502.277C564.761 495.411 568.618 486.099 568.618 476.39V465.21H475.433Z" fill="#E6E6E6"/>
<path d="M227.433 319.71H144.618C142.895 319.708 141.243 319.023 140.024 317.804C138.806 316.585 138.12 314.933 138.118 313.21V257.21C138.12 255.487 138.806 253.835 140.024 252.616C141.243 251.397 142.895 250.712 144.618 250.71H227.433C229.157 250.712 230.809 251.397 232.027 252.616C233.246 253.835 233.931 255.487 233.933 257.21V313.21C233.931 314.933 233.246 316.585 232.027 317.804C230.809 319.023 229.157 319.708 227.433 319.71Z" fill="#F2F2F2"/>
<path d="M307.1 390.71H242.433C240.71 390.708 239.058 390.023 237.839 388.804C236.621 387.585 235.935 385.933 235.933 384.21V328.21C235.935 326.487 236.621 324.835 237.839 323.616C239.058 322.397 240.71 321.712 242.433 321.71H307.1C308.823 321.712 310.475 322.397 311.694 323.616C312.912 324.835 313.598 326.487 313.6 328.21V384.21C313.598 385.933 312.912 387.585 311.694 388.804C310.475 390.023 308.823 390.708 307.1 390.71V390.71Z" fill="#F2F2F2"/>
<path d="M307.1 461.71H242.433C240.71 461.708 239.058 461.023 237.839 459.804C236.621 458.585 235.935 456.933 235.933 455.21V399.21C235.935 397.487 236.621 395.835 237.839 394.616C239.058 393.397 240.71 392.712 242.433 392.71H307.1C308.823 392.712 310.475 393.397 311.694 394.616C312.912 395.835 313.598 397.487 313.6 399.21V455.21C313.598 456.933 312.912 458.585 311.694 459.804C310.475 461.023 308.823 461.708 307.1 461.71Z" fill="#F2F2F2"/>
<path d="M386.767 319.71H322.1C320.377 319.708 318.724 319.023 317.506 317.804C316.287 316.585 315.602 314.933 315.6 313.21V257.21C315.602 255.487 316.287 253.835 317.506 252.616C318.724 251.397 320.377 250.712 322.1 250.71H386.767C388.49 250.712 390.142 251.397 391.361 252.616C392.579 253.835 393.265 255.487 393.267 257.21V313.21C393.265 314.933 392.579 316.585 391.361 317.804C390.142 319.023 388.49 319.708 386.767 319.71V319.71Z" fill="#F2F2F2"/>
<path d="M386.767 390.71H322.1C320.377 390.708 318.724 390.023 317.506 388.804C316.287 387.585 315.602 385.933 315.6 384.21V328.21C315.602 326.487 316.287 324.835 317.506 323.616C318.724 322.397 320.377 321.712 322.1 321.71H386.767C388.49 321.712 390.142 322.397 391.361 323.616C392.579 324.835 393.265 326.487 393.267 328.21V384.21C393.265 385.933 392.579 387.585 391.361 388.804C390.142 390.023 388.49 390.708 386.767 390.71V390.71Z" fill="#F2F2F2"/>
<path d="M307.1 319.71H242.433C240.71 319.708 239.058 319.023 237.839 317.804C236.621 316.585 235.935 314.933 235.933 313.21V257.21C235.935 255.487 236.621 253.835 237.839 252.616C239.058 251.397 240.71 250.712 242.433 250.71H307.1C308.823 250.712 310.475 251.397 311.694 252.616C312.912 253.835 313.598 255.487 313.6 257.21V313.21C313.598 314.933 312.912 316.585 311.694 317.804C310.475 319.023 308.823 319.708 307.1 319.71Z" fill="#F2F2F2"/>
<path d="M497.906 166.5H214.331C207.912 166.493 201.757 163.939 197.218 159.4C192.679 154.861 190.126 148.707 190.118 142.288V79.7124C190.126 73.2931 192.679 67.1388 197.218 62.5997C201.757 58.0606 207.912 55.5073 214.331 55.5H497.906C504.325 55.5073 510.48 58.0606 515.019 62.5997C519.558 67.1388 522.111 73.2931 522.118 79.7124V142.288C522.111 148.707 519.558 154.861 515.019 159.4C510.48 163.939 504.325 166.493 497.906 166.5V166.5Z" fill="white"/>
<path d="M403.118 147.5H342.118C340.792 147.5 339.521 146.973 338.583 146.036C337.645 145.098 337.118 143.826 337.118 142.5C337.118 141.174 337.645 139.902 338.583 138.964C339.521 138.027 340.792 137.5 342.118 137.5H403.118C404.444 137.5 405.716 138.027 406.654 138.964C407.592 139.902 408.118 141.174 408.118 142.5C408.118 143.826 407.592 145.098 406.654 146.036C405.716 146.973 404.444 147.5 403.118 147.5Z" fill="#528357"/>
<path d="M487.118 148H426.118C424.792 148 423.521 147.473 422.583 146.536C421.645 145.598 421.118 144.326 421.118 143C421.118 141.674 421.645 140.402 422.583 139.464C423.521 138.527 424.792 138 426.118 138H487.118C488.444 138 489.716 138.527 490.654 139.464C491.592 140.402 492.118 141.674 492.118 143C492.118 144.326 491.592 145.598 490.654 146.536C489.716 147.473 488.444 148 487.118 148Z" fill="#528357"/>
<path d="M317.118 148H256.118C254.792 148 253.521 147.473 252.583 146.536C251.645 145.598 251.118 144.326 251.118 143C251.118 141.674 251.645 140.402 252.583 139.464C253.521 138.527 254.792 138 256.118 138H317.118C318.444 138 319.716 138.527 320.654 139.464C321.592 140.402 322.118 141.674 322.118 143C322.118 144.326 321.592 145.598 320.654 146.536C319.716 147.473 318.444 148 317.118 148Z" fill="#528357"/>
<path d="M453.618 310C456.932 310 459.618 307.314 459.618 304C459.618 300.686 456.932 298 453.618 298C450.305 298 447.619 300.686 447.619 304C447.619 307.314 450.305 310 453.618 310Z" fill="#528357"/>
<path d="M456.618 382C459.932 382 462.618 379.314 462.618 376C462.618 372.686 459.932 370 456.618 370C453.305 370 450.619 372.686 450.619 376C450.619 379.314 453.305 382 456.618 382Z" fill="#528357"/>
<path d="M552.618 310C555.932 310 558.618 307.314 558.618 304C558.618 300.686 555.932 298 552.618 298C549.305 298 546.618 300.686 546.618 304C546.618 307.314 549.305 310 552.618 310Z" fill="#528357"/>
</svg>
